<?xml version="1.0" standalone="no"?><svg xmlns="http://www.w3.org/2000/svg" viewBox="0 0 1440 320"><path fill="#ffecd4" fill-opacity="1" d="M0,256L48,256C96,256,192,256,288,261.3C384,267,480,277,576,282.7C672,288,768,288,864,277.3C960,267,1056,245,1152,202.7C1248,160,1344,96,1392,64L1440,32L1440,320L1392,320C1344,320,1248,320,1152,320C1056,320,960,320,864,320C768,320,672,320,576,320C480,320,384,320,288,320C192,320,96,320,48,320L0,320Z" data-darkreader-inline-fill="" style="--darkreader-inline-fill: #007acc;"></path></svg>