<svg xmlns="http://www.w3.org/2000/svg" version="1.1" xmlns:xlink="http://www.w3.org/1999/xlink" xmlns:svgjs="http://svgjs.dev/svgjs" width="1440" height="560" preserveAspectRatio="none" viewBox="0 0 1440 560"><g mask="url(&quot;#SvgjsMask1116&quot;)" fill="none"><rect width="1440" height="560" x="0" y="0" fill="rgba(255, 242, 233, 1)"></rect><path d="M0,627.623C117.351,653.29,246.628,604.004,338.221,526.282C425.962,451.828,450.009,330.461,480.845,219.595C507.571,123.506,521.352,25.775,504.786,-72.577C488.506,-169.227,449.768,-260.074,387.325,-335.619C323.882,-412.374,245.094,-481.886,148.04,-504.178C53.227,-525.955,-40.754,-484.057,-133.684,-455.285C-225.252,-426.935,-331.327,-413.71,-389.71,-337.685C-447.493,-262.441,-427.005,-157.092,-435.256,-62.58C-443.007,26.211,-469.189,116.43,-436.595,199.386C-403.232,284.3,-319.989,332.68,-254.857,396.565C-171.302,478.52,-114.336,602.616,0,627.623" fill="#ffe4d1"></path><path d="M1440 1049C1534.845 1055.475 1631.312 1033.527 1711.31 982.1659999999999 1791.327 930.793 1844.833 849.413 1885.067 763.255 1925.563 676.5360000000001 1979.839 575.783 1942.1689999999999 487.799 1903.863 398.329 1767.199 405.195 1701.157 333.706 1638.596 265.985 1665.417 119.53199999999998 1577.203 92.73000000000002 1489.301 66.02300000000002 1429.609 198.52100000000002 1341.465 224.421 1253.349 250.312 1139.272 178.59300000000002 1072.0430000000001 241.163 1006.4580000000001 302.203 1034.152 413.603 1042.33 502.824 1049.1019999999999 576.709 1091.241 638.149 1114.877 708.479 1141.996 789.174 1132.71 885.105 1191.498 946.677 1254.638 1012.808 1348.779 1042.772 1440 1049" fill="#ffffff"></path></g><defs><mask id="SvgjsMask1116"><rect width="1440" height="560" fill="#ffffff"></rect></mask></defs></svg>